<?xml version="1.0" standalone="no"?>
<!DOCTYPE svg PUBLIC "-//W3C//DTD SVG 20010904//EN"
 "http://www.w3.org/TR/2001/REC-SVG-20010904/DTD/svg10.dtd">
<svg version="1.0" xmlns="http://www.w3.org/2000/svg"
 width="1200.000000pt" height="1200.000000pt" viewBox="0 0 1200.000000 1200.000000"
 preserveAspectRatio="xMidYMid meet">

<g transform="translate(0.000000,1200.000000) scale(0.100000,-0.100000)"
fill="#000000" stroke="none">
<path d="M5718 6742 l-3 -302 -185 -6 c-246 -6 -422 6 -477 35 -54 27 -107 80
-135 134 -17 32 -23 64 -26 140 l-4 97 -1217 -2 c-669 -1 -1198 -3 -1176 -5
644 -56 1119 -356 1257 -793 19 -63 23 -97 23 -205 0 -76 -5 -143 -12 -162 -7
-18 -11 -33 -9 -33 2 0 41 17 87 39 147 67 287 107 483 137 117 18 399 20 521
3 376 -50 694 -195 913 -417 108 -110 200 -267 224 -384 7 -32 15 -58 18 -58
3 0 11 26 18 58 37 180 205 401 407 537 272 183 604 277 975 277 288 0 536
-50 758 -153 47 -21 86 -39 87 -39 1 0 -4 26 -11 58 -44 187 13 423 147 603
208 282 595 474 1049 524 98 11 -66 13 -1102 14 l-1218 1 0 -82 c-1 -46 -7
-100 -14 -121 -32 -88 -113 -165 -199 -188 -22 -6 -163 -11 -325 -12 l-287 -2
-3 305 -3 305 -38 -182 c-20 -100 -40 -185 -43 -188 -3 -3 -17 -1 -32 5 -35
13 -297 13 -332 0 -15 -6 -29 -8 -33 -5 -3 4 -22 88 -43 188 l-37 182 -3 -303z"/>
</g>
</svg>
